<svg width="64" height="44" viewBox="0 0 64 44" fill="none" xmlns="http://www.w3.org/2000/svg">
<path fill-rule="evenodd" clip-rule="evenodd" d="M62.763 20.8332C62.763 20.8332 62.7641 20.8358 59.9992 22C62.7641 23.1642 62.763 23.1668 62.763 23.1668L62.7617 23.1699L62.7586 23.1773L62.75 23.1975L62.7236 23.2582C62.702 23.3076 62.6721 23.3747 62.634 23.4584C62.5576 23.6257 62.4479 23.8594 62.3037 24.15C62.0155 24.7307 61.5883 25.5414 61.0132 26.5056C59.8661 28.4286 58.113 30.992 55.6771 33.5632C50.7939 38.7177 43.0563 44 31.9992 44C20.9422 44 13.2045 38.7177 8.32137 33.5632C5.88547 30.992 4.1323 28.4286 2.98527 26.5056C2.41016 25.5414 1.98291 24.7307 1.69473 24.15C1.55052 23.8594 1.4408 23.6257 1.36449 23.4584C1.32633 23.3747 1.29649 23.3076 1.27485 23.2582L1.2485 23.1975L1.23989 23.1773L1.23673 23.1699L1.23543 23.1668C1.23543 23.1668 1.23432 23.1642 3.99922 22C1.23432 20.8358 1.23543 20.8332 1.23543 20.8332L1.23673 20.8301L1.23989 20.8227L1.2485 20.8025L1.27485 20.7418C1.29649 20.6924 1.32633 20.6253 1.36449 20.5416C1.4408 20.3743 1.55052 20.1406 1.69473 19.85C1.98291 19.2693 2.41016 18.4586 2.98527 17.4944C4.1323 15.5714 5.88547 13.008 8.32137 10.4368C13.2045 5.28233 20.9422 0 31.9992 0C43.0563 0 50.7939 5.28233 55.6771 10.4368C58.113 13.008 59.8661 15.5714 61.0132 17.4944C61.5883 18.4586 62.0155 19.2693 62.3037 19.85C62.4479 20.1406 62.5576 20.3743 62.634 20.5416C62.6721 20.6253 62.702 20.6924 62.7236 20.7418L62.75 20.8025L62.7586 20.8227L62.7617 20.8301L62.763 20.8332ZM8.13818 23.4319C7.81043 22.8825 7.543 22.3979 7.33381 22C7.543 21.6021 7.81043 21.1175 8.13818 20.5681C9.11615 18.9286 10.613 16.742 12.6771 14.5632C15.4837 11.6007 19.2875 8.69758 24.258 7.14977C19.9083 9.77602 17 14.5484 17 20C17 28.2843 23.7157 35 32 35C40.2843 35 47 28.2843 47 20C47 14.5491 44.0924 9.77722 39.7437 7.15077C44.7126 8.69882 48.5153 11.6013 51.3214 14.5632C53.3855 16.742 54.8823 18.9286 55.8603 20.5681C56.188 21.1175 56.4554 21.6021 56.6646 22C56.4554 22.3979 56.188 22.8825 55.8603 23.4319C54.8823 25.0714 53.3855 27.258 51.3214 29.4368C47.2045 33.7823 40.9422 38 31.9992 38C23.0563 38 16.7939 33.7823 12.6771 29.4368C10.613 27.258 9.11615 25.0714 8.13818 23.4319ZM32 27C35.866 27 39 23.866 39 20C39 16.8974 36.9815 14.2662 34.186 13.3481C34.7046 14.2817 35 15.3563 35 16.5C35 20.0899 32.0899 23 28.5 23C27.3563 23 26.2817 22.7046 25.3481 22.186C26.2662 24.9815 28.8974 27 32 27Z" fill="#FFCB04"/>
<path d="M3.99922 22L1.23432 23.1642L0.744141 22L1.23432 20.8358L3.99922 22Z" fill="#FFCB04"/>
<path d="M59.9992 22L62.7641 23.1642L63.2543 22L62.7641 20.8358L59.9992 22Z" fill="#FFCB04"/>
</svg>
