<svg width="63" height="54" viewBox="0 0 63 54" fill="none" xmlns="http://www.w3.org/2000/svg">
<path d="M56.2953 4.73979C57.2562 3.74827 57.2313 2.16555 56.2398 1.20469C55.2483 0.243833 53.6656 0.268692 52.7047 1.26022L5.70469 49.7602C4.74383 50.7517 4.76869 52.3345 5.76022 53.2953C6.75174 54.2562 8.33446 54.2313 9.29531 53.2398L56.2953 4.73979Z" fill="#8C8C8C"/>
<path d="M10.061 40.954C9.16303 40.1675 8.33569 39.3638 7.57723 38.5632C5.14133 35.992 3.38816 33.4286 2.24112 31.5056C1.66601 30.5414 1.23877 29.7307 0.950585 29.15C0.806383 28.8594 0.696661 28.6257 0.620353 28.4584C0.582189 28.3747 0.552351 28.3076 0.530707 28.2582L0.504357 28.1975L0.495753 28.1773L0.492587 28.1699L0.491288 28.1668C0.491288 28.1668 0.490177 28.1642 3.25508 27C0.490177 25.8358 0.491288 25.8332 0.491288 25.8332L0.492587 25.8301L0.495753 25.8227L0.504357 25.8025L0.530707 25.7418C0.552351 25.6924 0.582189 25.6253 0.620353 25.5416C0.696661 25.3743 0.806383 25.1406 0.950585 24.85C1.23877 24.2693 1.66601 23.4586 2.24112 22.4944C3.38816 20.5714 5.14133 18.008 7.57723 15.4368C12.4604 10.2823 20.198 5 31.2551 5C35.6218 5 39.4708 5.82388 42.8308 7.13838L18.2592 32.4942C16.985 30.2892 16.2559 27.7297 16.2559 25C16.2559 19.5484 19.1641 14.776 23.5139 12.1498C18.5434 13.6976 14.7396 16.6007 11.9329 19.5632C9.86883 21.742 8.37201 23.9286 7.39404 25.5681C7.06629 26.1175 6.79886 26.6021 6.58967 27C6.79886 27.3979 7.06629 27.8825 7.39404 28.4319C8.37201 30.0714 9.86883 32.258 11.9329 34.4368C12.6387 35.1817 13.4074 35.9228 14.2419 36.6397L10.061 40.954Z" fill="#8C8C8C"/>
<path d="M19.6608 46.8544C23.0251 48.1731 26.8803 49 31.2551 49C42.3121 49 50.0498 43.7177 54.9329 38.5632C57.3688 35.992 59.122 33.4286 60.269 31.5056C60.8442 30.5414 61.2714 29.7307 61.5596 29.15C61.7038 28.8594 61.8135 28.6257 61.8898 28.4584C61.928 28.3747 61.9578 28.3076 61.9795 28.2582L62.0058 28.1975L62.0144 28.1773L62.0176 28.1699L62.0189 28.1668C62.0189 28.1668 62.02 28.1642 59.2551 27L62.02 28.1642L62.5102 27L62.02 25.8358L59.2551 27C62.02 25.8358 62.0189 25.8332 62.0189 25.8332L62.0176 25.8301L62.0144 25.8227L62.0058 25.8025L61.9795 25.7418C61.9578 25.6924 61.928 25.6253 61.8898 25.5416C61.8135 25.3743 61.7038 25.1406 61.5596 24.85C61.2714 24.2693 60.8442 23.4586 60.269 22.4944C59.122 20.5714 57.3688 18.008 54.9329 15.4368C54.1706 14.632 53.3386 13.8242 52.4353 13.0338L48.2543 17.3483C49.0942 18.0689 49.8676 18.8142 50.5772 19.5632C52.6413 21.742 54.1382 23.9286 55.1161 25.5681C55.4439 26.1175 55.7113 26.6021 55.9205 27C55.7113 27.3979 55.4439 27.8825 55.1161 28.4319C54.1382 30.0714 52.6413 32.258 50.5772 34.4368C46.4604 38.7823 40.198 43 31.2551 43C28.7222 43 26.4044 42.6617 24.2895 42.078L19.6608 46.8544Z" fill="#8C8C8C"/>
<path d="M26.9198 39.3637C28.2925 39.7776 29.7482 40 31.2559 40C39.5401 40 46.2559 33.2843 46.2559 25C46.2559 23.3268 45.9819 21.7176 45.4764 20.2148L37.0913 28.8675C36.6142 29.5861 36.0079 30.2114 35.3055 30.7104L26.9198 39.3637Z" fill="#8C8C8C"/>
<path d="M3.25508 27L0.490177 28.1642L0 27L0.490177 25.8358L3.25508 27Z" fill="#8C8C8C"/>
</svg>
